<svg version="1.0" xmlns="http://www.w3.org/2000/svg"
 width="363.000000pt" height="415.000000pt" viewBox="0 0 363.000000 415.000000"
 preserveAspectRatio="xMidYMid meet">
<g transform="translate(0.000000,415.000000) scale(0.100000,-0.100000)"
fill="#000000" stroke="none">
<path d="M320 3930 c-173 -121 -315 -225 -315 -230 0 -5 208 -155 462 -332
254 -178 775 -541 1156 -808 l694 -484 -36 -26 c-33 -24 -1581 -1105 -1707
-1192 -369 -256 -574 -402 -574 -408 0 -10 637 -450 653 -450 8 0 56 29 105
65 105 75 465 326 1865 1300 553 385 1006 705 1006 710 0 6 -82 66 -181 135
-209 144 -1731 1205 -2472 1724 -170 119 -316 216 -325 216 -9 0 -158 -99
-331 -220z"/>
</g>
</svg>
